<?xml version="1.0" encoding="utf-8"?>
<!-- Generator: Adobe Illustrator 17.0.0, SVG Export Plug-In . SVG Version: 6.00 Build 0)  -->
<!DOCTYPE svg PUBLIC "-//W3C//DTD SVG 1.1//EN" "http://www.w3.org/Graphics/SVG/1.1/DTD/svg11.dtd">
<svg version="1.1" id="Layer_1" xmlns="http://www.w3.org/2000/svg" xmlns:xlink="http://www.w3.org/1999/xlink" x="0px" y="0px"
	 width="500px" height="500px" viewBox="0 0 500 500" enable-background="new 0 0 500 500" xml:space="preserve">
<path fill="none" stroke="#FFFF00" stroke-width="17" stroke-miterlimit="10" d="M52.788,212.933
	c-12.21,10.064-2.26,33.958,14.073,22.829c7.657-5.217,36.675-38.203,43.816-18.531c2.884,7.946-5.71,14.825-3.451,22.494
	c2.341,7.945,17.162,6.106,22.238,3.235c13.65-7.72,21.635-44.866,39.39-26.191c11.447,12.04,3.874,39.639,27.506,37.53
	c17.588-1.569,23.25-26.092,28.081-39.088c10.213-27.473,27.383,4.314,27.322,19.411c-0.105,25.83,26.316,11.009,28.638-6.735
	c1.896-14.493,9.775-38.181,26.025-19.265c6.473,7.534,8.371,14.224,7.815,24.1c-0.145,2.586-3.143,17.376-1.157,20.446
	c12.635,19.532,39.5-63.823,52.058-35.447c5.025,11.354-2.625,30.955,4.639,40.365c9.75,12.63,33.089-21.992,37.734-27.116
	c6.937-7.652,17.118-20.172,25.225-9.57c5.791,7.573,10.894,17.512,5.663,26.88c-4.531,8.115-13.469,18.721,0.545,20.872
	c11.36,1.743,24.476-9.836,30.041-18.788"/>
<path fill="none" stroke="#F2F2F2" stroke-width="17" stroke-miterlimit="10" d="M457.816,221.313
	c-32.147-4.486-64.128-10.278-96.669-13.657c-35.554-3.691-71.469,1.892-107.148,1.214c-19.571-0.372-196.878-11.7-193.863,15.152
	c26.59,5.519,60.251,2.768,87.536,2.367c31.806-0.468,63.394-5.076,95.251-5.076c36.636,0,73.178,0.17,109.791,1.594
	c15.307,0.596,32.202-0.968,47.23,2.133c14.911,3.076,28.996,8.005,44.465,8.005"/>
<path fill="none" stroke="#FF0000" stroke-width="17" stroke-miterlimit="10" d="M421.503,241.425
	c-1.053,4.353-7.061,16.936-11.579,18.585c-6.11,2.23-7.208-8.798-7.445-13.433c-0.456-8.924-3.365-29.286-17.32-25.862
	c-5.476,1.344-13.311,11.42-17.149,15.655c-3.682,4.063-11.227,18.206-16.479,19.496c-10.731,2.635-13.835-18.266-13.827-24.621
	c0.011-8.871-2.185-22.311-12.849-24.916c-11.357-2.774-19.012,16.41-24.161,23.923c-2.627,3.832-5.067,8.92-8.771,11.73
	c-6.749,5.12-12.398-1.6-16.212-7.509c-4.701-7.283-9.869-24.839-21.108-22.683c-8.036,1.541-13.77,17.087-15.318,23.954
	c-4.283,2.19-11.047,6.438-16.203,5.037c-4.03-1.095-8.311-6.371-11.663-8.85c-2.817-2.084-6.431-4.117-8.908-6.677
	c-4.295-4.44-7.02-10.054-13.523-11.215c-6.363-1.136-11.305,2.439-13.965,7.36c-4.584,8.481-5.198,31.328-19.599,30.123
	c-6.106-0.511-12.914-8.195-16.732-12.727c-4.809-5.708-6.693-17.85-13.837-19.157c-6.903-1.263-16.516,8.055-21.258,12.153
	c-6.343,5.482-12.03,12.005-17.96,18.016c-6.578,6.669-9.608,12.169-19.455,11.73c-5.98-0.267-12.954,0.188-18.423-1.676"/>
</svg>
