<?xml version="1.0" encoding="utf-8"?>
<!-- Generator: Adobe Illustrator 17.1.0, SVG Export Plug-In . SVG Version: 6.00 Build 0)  -->
<!DOCTYPE svg PUBLIC "-//W3C//DTD SVG 1.1//EN" "http://www.w3.org/Graphics/SVG/1.1/DTD/svg11.dtd">
<svg version="1.1" id="Layer_1" xmlns="http://www.w3.org/2000/svg" xmlns:xlink="http://www.w3.org/1999/xlink" x="0px" y="0px"
	 viewBox="0 0 500 500" enable-background="new 0 0 500 500" xml:space="preserve">
<rect x="2" y="1" fill="#22B573" width="497" height="498"/>
<rect x="14.6" y="13.4" fill="none" width="471.5" height="37.2"/>
<text transform="matrix(1 0 0 1 14.5835 25.1519)" font-family="'MyriadPro-Bold'" font-size="16.5429">Visualization Directive</text>
<rect x="16" y="38" fill="#8CC63F" width="471" height="448"/>
<text transform="matrix(1 0 0 1 26.9917 63.0371)"><tspan x="0" y="0" font-family="'MyriadPro-Regular'" font-size="16.5429">&lt;svg </tspan><tspan x="37.1" y="0" font-family="'MyriadPro-Bold'" font-size="16.5429">ng-attr-width</tspan><tspan x="137" y="0" font-family="'MyriadPro-Regular'" font-size="16.5429">=”{{width}}” </tspan><tspan x="220.9" y="0" font-family="'MyriadPro-Bold'" font-size="16.5429">ng-attr-height</tspan><tspan x="326.5" y="0" font-family="'MyriadPro-Regular'" font-size="16.5429">=”{{height}}”&gt;</tspan></text>
<rect x="29" y="76" fill="#D9E021" width="446" height="37"/>
<text transform="matrix(1 0 0 1 39.3979 100.2583)"><tspan x="0" y="0" font-family="'MyriadPro-Regular'" font-size="16.5429">&lt;defs&gt; </tspan><tspan x="52.2" y="0" font-family="'MyriadPro-Bold'" font-size="16.5429">clip-paths, filters, styles </tspan><tspan x="229.1" y="0" font-family="'MyriadPro-Regular'" font-size="16.5429">&lt;/defs&gt;</tspan></text>
<rect x="29" y="125" fill="#D9E021" width="446" height="74"/>
<text transform="matrix(1 0 0 1 39.3979 149.8872)"><tspan x="0" y="0" font-family="'MyriadPro-Regular'" font-size="16.5429">&lt;g clip-path=” </tspan><tspan x="103.6" y="0" font-family="'MyriadPro-Bold'" font-size="16.5429">reference to clippath using ‘=’ isolate scope</tspan><tspan x="421.7" y="0" font-family="'MyriadPro-Regular'" font-size="16.5429">”&gt;</tspan><tspan x="0" y="19.9" font-family="'MyriadPro-Regular'" font-size="16.5429">    &lt;directives-to-be-clipped&gt;</tspan><tspan x="0" y="39.7" font-family="'MyriadPro-Regular'" font-size="16.5429">&lt;/g&gt;</tspan><tspan x="0" y="59.6" font-family="'MyriadPro-Regular'" font-size="16.5429" letter-spacing="46">	</tspan><tspan x="49.6" y="59.6" font-family="'MyriadPro-Regular'" font-size="16.5429"> </tspan></text>
<rect x="29" y="212" fill="#D9E021" width="446" height="74"/>
<text transform="matrix(1 0 0 1 39.3979 236.7378)"><tspan x="0" y="0" font-family="'MyriadPro-Regular'" font-size="16.5429">&lt;g </tspan><tspan x="22.6" y="0" font-family="'MyriadPro-Bold'" font-size="16.5429">image-directive-with-group-wrapper-for-positioning</tspan><tspan x="412.1" y="0" font-family="'MyriadPro-Regular'" font-size="16.5429">&gt;</tspan><tspan x="0" y="19.9" font-family="'MyriadPro-Regular'" font-size="16.5429">     &lt;image xlink:href=”thisAttrMustBeNamespaced.png”&gt;</tspan><tspan x="0" y="39.7" font-family="'MyriadPro-Regular'" font-size="16.5429">&lt;/g&gt;</tspan></text>
<rect x="29" y="299" fill="#D9E021" width="446" height="74"/>
<text transform="matrix(1 0 0 1 39.3979 323.5869)"><tspan x="0" y="0" font-family="'MyriadPro-Regular'" font-size="16.5429">&lt;g </tspan><tspan x="22.6" y="0" font-family="'MyriadPro-Bold'" font-size="16.5429">ng-repeat=”path in paths”</tspan><tspan x="217.5" y="0" font-family="'MyriadPro-Regular'" font-size="16.5429">&gt;</tspan><tspan x="0" y="19.9" font-family="'MyriadPro-Regular'" font-size="16.5429">     &lt;path d=”M 0 0 H 500 V 500 H 0 z” fill=”#ff0000”&gt;</tspan><tspan x="0" y="39.7" font-family="'MyriadPro-Regular'" font-size="16.5429">&lt;/g&gt;</tspan></text>
<rect x="29" y="386" fill="#D9E021" width="446" height="74"/>
<text transform="matrix(1 0 0 1 39.3979 410.4385)"><tspan x="0" y="0" font-family="'MyriadPro-Regular'" font-size="16.5429">&lt;g </tspan><tspan x="22.6" y="0" font-family="'MyriadPro-Bold'" font-size="16.5429">viz-overlay-with-group-wrapper-for-positioning</tspan><tspan x="377.6" y="0" font-family="'MyriadPro-Regular'" font-size="16.5429">&gt;</tspan><tspan x="0" y="19.9" font-family="'MyriadPro-Regular'" font-size="16.5429">     &lt;image xlink:href=”data:image/png;base64Zx7jd9lsmn=”/&gt;</tspan><tspan x="0" y="39.7" font-family="'MyriadPro-Regular'" font-size="16.5429">&lt;/g&gt;</tspan></text>
</svg>
